# xmcd
#
# Track frame offsets: 
#        150
#        22232
#        49739
#        72519
#        94594
#        112447
#        140210
#        165469
#        183544
#        207184
#        232221
#        253000
#
# Disc length: 3696 seconds
#
# Revision: 2
# Processed by: cddbd v1.5.2PL0 Copyright (c) Steve Scherf et al.
# Submitted via: ExactAudioCopy v0.95b4
#
DISCID=be0e6e0c
DTITLE=Steve Kuhn Trio - Baubles, Bangles And Beads
DYEAR=2007
DGENRE=Jazz
TTITLE0=And This Is My Beloved - Nocturne from "Strings Quartet No.2" 
TTITLE0=<A. Borodin>
TTITLE1=Till The End of Time - Polonaise No.53 <F. Chopin>
TTITLE2=Symphony No.3, 3rd Movement <J. Brahms>
TTITLE3=If You Are But A Dream - Romance <A. Rubinstein>
TTITLE4=Stranger In Paradise - Plovetzian Dance <A. Borodin>
TTITLE5=Gymnopedie No.1 <E. Satie>
TTITLE6=I Think of You - Piano Concerto No.2, 1st Movement <S. Rachman
TTITLE6=inov>
TTITLE7=Prelude No.20 in C minor <F. Chopin>
TTITLE8=I Look at Heaven - Piano Concerto in A minor, 1st Movement <E.
TTITLE8=Grieg>
TTITLE9=Baubles, Bangles And Beads - Strings Quartet No.2 in D major <
TTITLE9=A. Borodin>
TTITLE10=Vilia - From "The Merry Widow" <F. Lehar>
TTITLE11=Prelude No.7 <F. Chopin>
EXTD=YEAR: 2008
EXTT0=
EXTT1=
EXTT2=
EXTT3=
EXTT4=
EXTT5=
EXTT6=
EXTT7=
EXTT8=
EXTT9=
EXTT10=
EXTT11=
PLAYORDER=
